<svg width="18" height="16" viewBox="0 0 18 16" fill="none" xmlns="http://www.w3.org/2000/svg">
<path fill-rule="evenodd" clip-rule="evenodd" d="M0.894043 2C0.894043 1.68174 1.02047 1.37652 1.24551 1.15148C1.47056 0.926431 1.77578 0.800003 2.09404 0.800003H16.494C16.8123 0.800003 17.1175 0.926431 17.3426 1.15148C17.5676 1.37652 17.694 1.68174 17.694 2C17.694 2.31826 17.5676 2.62349 17.3426 2.84853C17.1175 3.07357 16.8123 3.2 16.494 3.2H2.09404C1.77578 3.2 1.47056 3.07357 1.24551 2.84853C1.02047 2.62349 0.894043 2.31826 0.894043 2ZM0.894043 8C0.894043 7.68174 1.02047 7.37652 1.24551 7.15147C1.47056 6.92643 1.77578 6.8 2.09404 6.8H16.494C16.8123 6.8 17.1175 6.92643 17.3426 7.15147C17.5676 7.37652 17.694 7.68174 17.694 8C17.694 8.31826 17.5676 8.62349 17.3426 8.84853C17.1175 9.07357 16.8123 9.2 16.494 9.2H2.09404C1.77578 9.2 1.47056 9.07357 1.24551 8.84853C1.02047 8.62349 0.894043 8.31826 0.894043 8ZM0.894043 14C0.894043 13.6817 1.02047 13.3765 1.24551 13.1515C1.47056 12.9264 1.77578 12.8 2.09404 12.8H9.29404C9.6123 12.8 9.91753 12.9264 10.1426 13.1515C10.3676 13.3765 10.494 13.6817 10.494 14C10.494 14.3183 10.3676 14.6235 10.1426 14.8485C9.91753 15.0736 9.6123 15.2 9.29404 15.2H2.09404C1.77578 15.2 1.47056 15.0736 1.24551 14.8485C1.02047 14.6235 0.894043 14.3183 0.894043 14Z" fill="white"/>
</svg>
